<svg width="499" height="499" viewBox="0 0 499 499" fill="none" xmlns="http://www.w3.org/2000/svg">
<path d="M191.62 230.123C191.706 230.16 191.792 230.198 191.877 230.235C193.423 230.893 194.247 231.283 195.895 231.923C197.512 232.519 198.4 232.885 200.143 233.416C200.757 233.605 201.403 233.791 202.087 233.974C202.09 233.974 202.092 233.975 202.095 233.975C202.735 234.146 203.409 234.314 204.122 234.476C204.385 234.536 204.653 234.595 204.928 234.654C206.474 234.984 208.213 235.293 210.207 235.563C211.907 235.794 213.793 235.997 215.91 236.166C217.748 236.312 219.759 236.433 221.983 236.535C223.941 236.625 226.09 236.699 228.403 236.775C229.999 236.828 231.719 236.884 233.471 236.943C234.134 236.965 234.791 236.99 235.443 237.017C237.87 237.119 240.222 237.254 242.492 237.417C244.942 237.594 247.295 237.803 249.545 238.038C252.024 238.298 254.377 238.589 256.592 238.902C259.121 239.259 261.47 239.643 263.625 240.04C266.241 240.523 268.638 241.028 270.627 241.515C270.819 241.562 271.009 241.609 271.197 241.655C272.662 242.025 274.21 242.276 278.174 242.771C279.603 242.952 281.312 243.164 283.411 243.44C285.098 243.663 287.036 243.926 289.281 244.258C291.333 244.561 293.642 244.921 296.249 245.366C297.049 245.503 297.877 245.648 298.734 245.803C301.79 246.353 305.288 246.999 309.089 247.774C313.087 248.59 317.419 249.549 321.917 250.683C326.074 251.731 330.372 252.929 334.673 254.282C338.734 255.555 343.042 257.059 346.924 258.568C347.042 258.614 347.159 258.659 347.276 258.705C348.381 259.133 349.792 259.742 350.902 260.268C352.09 260.827 353.239 261.416 354.351 262.026C355.484 262.649 356.579 263.294 357.636 263.956C358.719 264.635 359.763 265.331 360.77 266.04C361.807 266.77 362.804 267.514 363.763 268.267C364.721 269.017 365.795 269.909 366.623 270.632C367.288 271.211 368.028 271.858 368.759 272.522C369.531 273.222 370.326 273.969 371.123 274.77C371.965 275.616 372.81 276.525 373.628 277.497C373.973 277.907 374.312 278.328 374.644 278.76C375.144 279.41 375.638 280.097 376.115 280.822C376.917 282.04 377.671 283.367 378.329 284.778C378.936 286.037 379.675 288.051 379.98 289.213C380.86 292.245 381.624 296.561 381.797 299.998C382.016 303.605 381.851 307.215 381.354 310.74C380.871 314.183 380.076 317.543 379.041 320.801C378.868 321.345 378.688 321.886 378.502 322.426C377.614 324.996 376.58 327.505 375.429 329.957C374.097 332.794 372.607 335.559 370.987 338.276C369.481 340.805 367.716 343.511 366.034 345.908C364.107 348.678 361.602 351.92 359.093 354.754C358.701 355.199 358.303 355.643 357.899 356.086C355.749 358.439 353.438 360.62 350.994 362.624C348.062 365.028 344.938 367.176 341.669 369.06C338.396 370.946 334.978 372.568 331.453 373.924C330.933 374.124 330.409 374.319 329.884 374.508C328.536 374.992 327.172 375.44 325.796 375.848C324.117 376.346 322.418 376.788 320.702 377.174C317.206 377.96 313.261 378.586 309.739 378.861C308.019 378.992 306.251 379.131 304.487 379.271C302.76 379.409 301.013 379.552 299.245 379.702C298.49 379.767 297.73 379.833 296.966 379.9C295.97 379.988 294.986 380.076 294.013 380.163C292.237 380.324 290.497 380.485 288.787 380.646C287.017 380.813 285.278 380.98 283.566 381.146C281.807 381.317 280.051 381.491 278.346 381.66C276.195 381.875 273.976 382.065 271.862 382.225C269.693 382.388 267.55 382.527 265.417 382.649C263.277 382.77 261.148 382.874 259.015 382.966C256.905 383.057 254.792 383.135 252.662 383.206C251.956 383.23 251.248 383.252 250.538 383.274C249.156 383.317 247.765 383.357 246.363 383.397C244.308 383.454 242.241 383.509 240.122 383.567C238.372 383.615 236.44 383.606 234.608 383.55C233.554 383.518 232.494 383.471 231.427 383.409C230.695 383.366 229.945 383.315 229.179 383.256C227.478 383.126 225.696 382.956 223.854 382.755C222.161 382.57 220.417 382.358 218.637 382.131C216.961 381.918 215.252 381.692 213.521 381.465C211.856 381.247 210.207 381.033 208.496 380.826C206.914 380.635 205.268 380.424 203.634 380.2C202.027 379.98 200.403 379.745 198.767 379.492C197.152 379.242 195.527 378.976 193.896 378.691C192.732 378.488 191.565 378.276 190.399 378.053C189.941 377.966 189.483 377.878 189.026 377.788C188.177 377.621 187.329 377.449 186.482 377.272C186.476 377.271 186.469 377.269 186.463 377.268C185.693 377.107 184.925 376.941 184.158 376.771C182.543 376.412 180.875 376.019 179.3 375.625C176.925 375.032 174.552 374.416 172.273 373.821C169.894 373.2 167.579 372.591 165.342 372.015C162.96 371.4 160.667 370.823 158.48 370.299C156.07 369.721 153.79 369.208 151.668 368.771C151.161 368.667 150.663 368.567 150.175 368.471C148.265 368.096 146.511 367.787 144.894 367.533C142.297 367.126 140.182 366.874 138.165 366.686C137.514 366.628 137.016 366.604 136.418 366.578C135.784 366.553 135.163 366.542 134.558 366.539C133.882 366.534 133.224 366.54 132.587 366.548C131.868 366.557 131.174 366.57 130.504 366.582C129.744 366.596 129.013 366.608 128.305 366.614C127.528 366.622 126.692 366.616 125.985 366.605C125.561 366.598 125.1 366.582 124.735 366.573C124.617 366.57 124.503 366.568 124.392 366.565C124.135 366.559 123.896 366.555 123.674 366.554C123.353 366.552 123.069 366.557 122.82 366.568C122.572 366.58 122.359 366.598 122.177 366.622C121.999 366.645 121.851 366.673 121.726 366.704C121.545 366.743 121.651 366.746 121.419 366.801C121.268 366.834 121.107 366.868 120.935 366.902C120.182 367.048 119.447 367.16 118.775 367.249C117.988 367.354 117.234 367.435 116.522 367.509C115.853 367.579 115.22 367.643 114.639 367.712C114.086 367.778 113.58 367.849 113.138 367.928C112.714 368.004 112.35 368.088 112.061 368.173C111.681 368.293 111.802 368.248 111.423 368.407C109.902 369.155 107.059 369.891 105.302 370.029C103.4 370.231 101.662 370.184 100.102 370.065C98.5829 369.945 97.221 369.755 95.9971 369.582C94.7969 369.412 93.7271 369.257 92.8193 369.167C91.9211 369.076 91.1874 369.053 90.686 369.085C90.676 369.086 90.6661 369.086 90.6563 369.087C90.6386 369.088 90.6212 369.09 90.6041 369.091C89.9352 369.142 89.4971 368.149 88.874 366.882C88.289 365.624 88.7163 364.172 90.1926 364.055C90.2344 364.051 90.2764 364.048 90.3187 364.046C91.2243 363.986 92.2264 364.031 93.287 364.136C94.3656 364.242 95.5031 364.409 96.6867 364.577C97.9 364.748 99.1639 364.923 100.486 365.026C101.852 365.132 103.286 365.163 104.768 365.004C105.871 364.884 106.96 364.673 108.147 364.272C108.132 363.693 108.413 363.079 108.8 362.504C109.096 361.958 109.514 361.537 110.207 361.298C110.294 361.268 110.383 361.242 110.474 361.22C110.885 361.12 111.399 361.002 112.028 360.883C112.579 360.778 113.218 360.673 113.953 360.569C114.557 360.483 115.225 360.397 115.958 360.301C116.597 360.217 117.286 360.125 118.024 360.007C118.68 359.901 119.411 359.769 120.132 359.596C120.469 359.514 120.768 359.452 121.12 359.398C121.449 359.348 121.791 359.31 122.146 359.285C122.487 359.26 122.84 359.246 123.206 359.24C123.558 359.235 123.922 359.237 124.296 359.244C124.658 359.251 125.03 359.261 125.412 359.271C125.78 359.28 126.164 359.29 126.548 359.294C127.231 359.301 127.94 359.296 128.657 359.281C129.341 359.267 130.04 359.246 130.752 359.22C131.435 359.196 132.13 359.169 132.839 359.143C133.52 359.119 134.214 359.096 134.921 359.08C135.603 359.065 136.297 359.057 137.004 359.061C137.687 359.066 138.383 359.082 139.09 359.118C141.365 359.232 143.765 359.416 146.273 359.672C146.686 359.714 147.102 359.758 147.52 359.804C147.102 359.657 146.703 359.517 146.324 359.382C145.494 359.087 144.752 358.818 144.075 358.57C142.918 358.145 142.019 357.809 141.248 357.526C140.558 357.274 139.966 357.063 139.365 356.873C138.726 356.673 138.022 356.501 137.216 356.351C136.992 356.31 136.759 356.27 136.512 356.232C136.053 356.182 135.57 356.136 135.067 356.094C134.394 356.039 133.685 355.992 132.948 355.949C132.276 355.91 131.58 355.874 130.867 355.837C130.201 355.802 129.52 355.766 128.828 355.723C128.164 355.682 127.521 355.636 126.834 355.576C126.479 355.545 126.139 355.511 125.763 355.472C125.399 355.435 125.021 355.396 124.626 355.359C124.239 355.323 123.835 355.289 123.415 355.264C123.002 355.24 122.572 355.224 122.129 355.223C121.69 355.222 121.239 355.237 120.778 355.273C120.343 355.305 119.808 355.372 119.391 355.446C118.777 355.55 118.23 355.616 117.576 355.681C117.41 355.697 117.243 355.712 117.073 355.727C116.559 355.771 116.052 355.714 115.588 355.58C114.447 355.247 113.542 354.463 113.454 353.476C113.359 352.496 114.167 351.571 115.236 351.077C115.68 350.87 116.161 350.736 116.635 350.695C116.666 350.692 116.698 350.689 116.729 350.686C116.84 350.676 116.949 350.666 117.055 350.656C117.658 350.595 117.98 350.559 118.503 350.473C118.998 350.382 119.815 350.277 120.361 350.238C120.968 350.19 121.554 350.171 122.107 350.171C122.666 350.171 123.192 350.191 123.681 350.219C124.175 350.248 124.633 350.286 125.055 350.325C125.482 350.365 125.872 350.405 126.229 350.442C126.606 350.48 126.889 350.509 127.221 350.539C127.873 350.596 128.427 350.636 129.07 350.677C129.722 350.717 130.38 350.753 131.038 350.787C131.735 350.823 132.432 350.858 133.12 350.898C133.865 350.94 134.6 350.987 135.313 351.044C136.038 351.101 136.741 351.167 137.409 351.244C137.477 351.252 137.545 351.26 137.612 351.268C138.46 351.37 139.366 351.503 140.007 351.623C140.278 351.674 140.531 351.723 140.762 351.77C141.395 351.898 142.2 352.072 142.644 352.219C142.702 352.238 142.814 352.277 142.947 352.33C142.949 352.331 142.951 352.332 142.953 352.333C143.027 352.363 143.407 352.513 143.791 352.779C143.869 352.832 144.037 352.951 144.223 353.131C144.275 353.151 144.327 353.171 144.379 353.19C145.104 353.465 145.839 353.75 146.632 354.046C146.822 354.117 147.018 354.19 147.222 354.265C148.912 354.892 151.117 355.671 154.262 356.745C156.192 357.405 158.474 358.178 161.201 359.102C162.235 359.452 163.332 359.823 164.498 360.217C165.6 360.589 166.794 360.982 168.076 361.394C170.142 362.059 172.435 362.774 174.937 363.524C177.077 364.164 179.357 364.824 181.798 365.491C183.276 365.894 184.78 366.279 186.367 366.656C187.855 367.01 189.393 367.353 190.98 367.682C192.487 367.994 194.037 368.294 195.628 368.582C197.15 368.857 198.709 369.12 200.304 369.371C201.838 369.613 203.405 369.843 205.003 370.063C206.108 370.215 207.23 370.361 208.362 370.503C207.255 370.276 206.144 370.046 205.037 369.812C204.831 369.769 204.625 369.726 204.419 369.682C203.075 369.397 201.731 369.107 200.39 368.809C198.847 368.466 197.306 368.114 195.771 367.748C195.36 367.651 194.949 367.552 194.539 367.452C193.414 367.179 192.307 366.902 191.187 366.614C191.058 366.581 190.928 366.547 190.799 366.514C189.41 366.153 188.024 365.779 186.644 365.391C186.021 365.216 185.4 365.038 184.78 364.857C183.905 364.601 183.038 364.341 182.15 364.067C181.675 363.921 181.2 363.774 180.727 363.627C180.724 363.626 180.721 363.625 180.718 363.624C178.941 363.07 177.156 362.502 175.351 361.922C175.242 361.887 175.132 361.851 175.021 361.816C174.351 361.598 173.689 361.382 173.029 361.169C171.539 360.687 170.06 360.209 168.514 359.691C167.338 359.296 166.124 358.879 164.835 358.419C164.476 358.277 164.088 358.112 163.799 357.985C163.488 357.848 163.189 357.714 162.908 357.584C162.659 357.468 162.422 357.355 162.195 357.249C162.165 357.235 162.134 357.22 162.104 357.206C161.968 357.143 161.836 357.082 161.707 357.022C161.592 356.969 161.48 356.918 161.37 356.868C161.135 356.761 160.908 356.659 160.684 356.564C160.682 356.563 160.68 356.562 160.677 356.562C160.443 356.463 160.264 356.388 160.013 356.292C159.697 356.171 159.425 356.071 159.092 355.958C158.77 355.849 158.433 355.74 158.092 355.635C157.75 355.53 157.4 355.427 157.044 355.325C156.688 355.224 156.325 355.123 155.959 355.024C155.592 354.926 155.219 354.829 154.844 354.732C154.797 354.72 154.75 354.708 154.703 354.696C154.374 354.612 154.041 354.527 153.705 354.444C152.824 354.224 152.026 353.776 151.486 353.185C150.947 352.593 150.711 351.908 150.838 351.27C150.966 350.632 151.451 350.088 152.191 349.758C152.932 349.427 153.867 349.34 154.781 349.509C155.03 349.555 155.28 349.601 155.53 349.648C155.614 349.664 155.698 349.68 155.782 349.696C155.847 349.709 155.912 349.722 155.978 349.734C156.379 349.812 156.783 349.89 157.189 349.972C157.594 350.055 158.001 350.141 158.412 350.232C158.824 350.322 159.24 350.416 159.66 350.518C160.079 350.619 160.505 350.727 160.935 350.844C161.355 350.957 161.831 351.096 162.253 351.229C162.498 351.305 162.785 351.402 163.05 351.494C163.12 351.518 163.188 351.542 163.253 351.565C163.581 351.68 163.901 351.799 164.209 351.916C164.517 352.033 164.813 352.15 165.096 352.262C165.126 352.274 165.157 352.286 165.187 352.297C165.437 352.396 165.677 352.492 165.905 352.581C166.16 352.68 166.401 352.771 166.631 352.855C166.884 352.947 167.039 352.998 167.229 353.059C168.101 353.309 169.043 353.567 170.023 353.828C171.892 354.326 173.898 354.838 175.825 355.328C176.193 355.421 176.56 355.515 176.922 355.607C176.942 355.612 176.962 355.617 176.981 355.622C178.888 356.103 180.766 356.569 182.632 357.02C183.025 357.115 183.421 357.21 183.817 357.304C184.801 357.539 185.701 357.743 186.652 357.953C187.165 358.066 187.68 358.177 188.196 358.287C189.646 358.594 191.108 358.886 192.576 359.164C192.592 359.167 192.609 359.17 192.626 359.173C193.844 359.404 195.046 359.622 196.272 359.835C196.549 359.883 196.825 359.93 197.102 359.977C198.599 360.233 200.106 360.477 201.619 360.712C203.114 360.944 204.616 361.168 206.124 361.385C206.14 361.388 206.157 361.39 206.174 361.392C207.704 361.613 209.198 361.822 210.761 362.036C212.498 362.272 214.287 362.537 215.993 362.806C216.152 362.831 216.311 362.856 216.47 362.881C218.005 363.125 219.546 363.382 221.069 363.641C222.741 363.926 224.392 364.215 225.998 364.498C226.246 364.542 226.493 364.585 226.738 364.628C228.101 364.87 229.465 365.135 230.792 365.394C231.819 365.594 232.825 365.792 233.792 365.975C234.363 366.084 234.927 366.188 235.484 366.288C236.09 366.396 236.69 366.499 237.283 366.596C237.287 366.597 237.291 366.598 237.295 366.599C238.237 366.754 239.124 366.894 240.122 367.013C240.173 367.019 240.223 367.024 240.273 367.03C242.35 367.265 244.401 367.485 246.42 367.677C246.688 367.702 246.955 367.727 247.223 367.751C249.04 367.916 250.842 368.057 252.642 368.166C253.104 368.194 253.565 368.22 254.027 368.244C255.612 368.326 257.21 368.384 258.799 368.413C259.461 368.426 260.121 368.433 260.778 368.435C262.157 368.44 263.515 368.424 264.888 368.384C265.75 368.359 266.619 368.325 267.501 368.281C268.639 368.223 269.771 368.15 270.9 368.061C272.767 367.915 274.553 367.735 276.441 367.505C276.567 367.489 276.694 367.473 276.821 367.457C278.507 367.246 280.157 367.024 281.841 366.786C283.133 366.603 284.426 366.412 285.719 366.215C286.097 366.158 286.476 366.1 286.854 366.042C287.561 365.933 288.27 365.822 288.978 365.708C288.982 365.708 288.987 365.707 288.991 365.706C289.946 365.553 290.903 365.396 291.859 365.237C292.916 365.06 293.973 364.88 295.031 364.696C295.639 364.59 296.248 364.483 296.858 364.375C298.52 364.08 300.184 363.777 301.85 363.468C302.692 363.311 303.537 363.153 304.379 362.993C305.192 362.839 306.01 362.683 306.839 362.524C306.839 362.524 306.839 362.524 306.839 362.524C309.089 362.084 310.859 361.636 312.922 361.027C313.635 360.814 314.347 360.589 315.062 360.349C317.079 359.674 319.096 358.895 321.098 358.036C321.732 357.762 322.365 357.479 322.994 357.185C324.76 356.36 326.497 355.453 328.168 354.482C328.766 354.134 329.359 353.776 329.948 353.407C330.151 353.28 330.353 353.152 330.553 353.023C333.042 351.42 335.358 349.665 337.501 347.747C337.561 347.693 337.621 347.64 337.68 347.586C339.788 345.684 341.746 343.606 343.553 341.374C343.774 341.102 343.992 340.827 344.208 340.55C345.83 338.467 347.148 336.52 348.588 334.135C348.956 333.524 349.312 332.915 349.649 332.321C350.537 330.754 351.387 329.146 352.166 327.53C352.824 326.166 353.435 324.794 353.994 323.408C354.338 322.555 354.66 321.702 354.96 320.846C355.717 318.69 356.328 316.527 356.76 314.382C356.771 314.326 356.783 314.269 356.794 314.212C357.116 312.599 357.367 310.924 357.505 309.372C357.552 308.853 357.588 308.338 357.614 307.828C357.667 306.747 357.672 305.689 357.626 304.658C357.599 304.042 357.555 303.436 357.492 302.84C357.455 302.495 357.413 302.156 357.365 301.818C357.292 301.303 357.205 300.796 357.104 300.299C356.797 298.825 356.518 297.949 355.953 296.369C355.933 296.315 355.913 296.26 355.892 296.206C355.892 296.206 355.892 296.206 355.892 296.206C355.659 295.675 355.67 295.928 355.454 295.598C355.278 295.396 355.071 295.188 354.817 294.96C354.808 294.952 354.799 294.943 354.789 294.935C354.521 294.697 354.222 294.455 353.872 294.197C353.504 293.926 353.081 293.637 352.549 293.298C352.54 293.291 352.53 293.285 352.521 293.279C352.004 292.917 351.471 292.545 350.934 292.168C350.293 291.716 349.679 291.282 349.027 290.803C348.254 290.249 347.727 289.906 347.058 289.456C346.635 289.175 346.215 288.903 345.783 288.633C345.549 288.488 345.312 288.344 345.069 288.2C344.906 288.103 344.74 288.006 344.572 287.909C344.069 287.615 343.565 287.331 343.062 287.058C342.392 286.696 341.723 286.354 341.058 286.036C340.39 285.716 339.726 285.42 339.069 285.149C338.528 284.924 338.035 284.737 337.552 284.566C337.42 284.518 337.273 284.465 337.116 284.41C334.011 283.298 331.319 282.403 328.262 281.432C327.59 281.219 326.915 281.008 326.238 280.8C323.762 280.037 321.257 279.304 318.743 278.604C317.54 278.269 316.334 277.942 315.123 277.62C313.119 277.089 311.104 276.575 309.075 276.076C307.328 275.647 305.555 275.224 303.785 274.817C302.262 274.465 300.741 274.124 299.244 273.797C297.374 273.387 295.381 272.955 293.523 272.562C293.096 272.472 292.671 272.383 292.248 272.294C291.341 272.105 290.442 271.921 289.553 271.743C289.021 271.637 288.491 271.532 287.966 271.431C286.155 271.08 284.386 270.761 282.67 270.485C281.941 270.368 281.221 270.259 280.507 270.158C279.542 270.021 278.588 269.899 277.645 269.793C275.999 269.609 274.39 269.474 272.787 269.385C271.321 269.305 270.054 269.263 268.53 269.25C268.319 269.248 268.104 269.247 267.884 269.246C266.698 269.244 265.57 269.252 264.426 269.262C263.56 269.27 262.698 269.281 261.835 269.296C260.988 269.31 260.142 269.327 259.292 269.348C257.897 269.382 256.516 269.424 255.133 269.475C254.817 269.487 254.5 269.499 254.184 269.512C253.636 269.534 253.059 269.558 252.51 269.584C251.139 269.646 249.781 269.718 248.426 269.8C248.104 269.819 247.782 269.839 247.461 269.86C245.788 269.967 244.13 270.09 242.479 270.23C242.224 270.251 241.969 270.273 241.715 270.296C240.318 270.419 238.935 270.553 237.528 270.703C236.673 270.795 235.829 270.871 235.002 270.935C233.094 271.084 231.288 271.171 229.64 271.238C229.187 271.256 228.737 271.273 228.291 271.288C226.372 271.356 224.536 271.404 222.679 271.444C222.389 271.45 222.098 271.456 221.807 271.462C221.668 271.464 221.529 271.467 221.39 271.47C219.531 271.504 217.668 271.526 215.796 271.535C215.532 271.536 215.268 271.537 215.004 271.538C212.959 271.543 210.901 271.532 208.794 271.487C208.489 271.481 208.183 271.473 207.875 271.465C205.805 271.411 203.681 271.322 201.542 271.185C201.161 271.16 200.782 271.134 200.403 271.107C198.311 270.954 196.228 270.758 193.968 270.471C193.508 270.413 193.044 270.351 192.576 270.286C190.415 269.993 187.938 269.577 185.432 269.028C185.085 268.953 184.749 268.879 184.42 268.806C182.001 268.275 178.772 267.29 176.235 266.374C176.233 266.373 176.232 266.373 176.23 266.372C173.621 265.432 171.081 264.355 168.644 263.178C168.235 262.981 167.831 262.782 167.428 262.579C165.429 261.573 163.49 260.498 161.619 259.373C160.859 258.916 160.111 258.451 159.374 257.979C157.909 257.04 156.484 256.07 155.096 255.073C154.057 254.327 153.038 253.565 152.038 252.79C151.02 252.001 150.007 251.185 149.014 250.356C147.721 249.275 146.518 248.223 145.272 247.085C144.576 246.45 143.927 245.842 143.324 245.266C142.641 244.612 141.916 243.92 141.148 243.178C140.381 242.435 139.578 241.647 138.746 240.804C137.914 239.96 137.055 239.062 136.176 238.095C135.983 237.882 135.788 237.665 135.593 237.445C134.903 236.668 134.203 235.847 133.5 234.974C132.6 233.854 131.693 232.649 130.803 231.339C129.993 230.165 128.852 228.302 128.218 227.088C127.605 225.948 126.788 224.289 126.233 223.028C126.146 222.834 126.061 222.64 125.977 222.446C125.474 221.288 125.011 220.13 124.584 218.973C124.085 217.622 123.633 216.273 123.225 214.924C122.816 213.576 122.45 212.227 122.122 210.879C121.833 209.688 121.574 208.497 121.344 207.304C121.313 207.145 121.283 206.986 121.253 206.827C121.012 205.545 120.756 203.955 120.602 202.757C120.371 201.071 120.154 198.706 120.085 196.889C120.005 195.011 120.004 193.145 120.08 191.283C120.083 191.218 120.085 191.154 120.088 191.089C120.138 189.959 120.215 188.829 120.321 187.7C120.397 186.903 120.486 186.106 120.59 185.308C120.843 183.378 121.181 181.446 121.617 179.509C121.951 178.021 122.343 176.532 122.8 175.038C122.809 175.009 122.818 174.98 122.828 174.951C122.959 174.523 123.096 174.094 123.239 173.666C123.833 171.849 124.803 169.392 125.576 167.777C126.129 166.525 127.343 164.353 128.141 163.195C129.04 161.84 129.956 160.653 130.851 159.591C131.5 158.822 132.138 158.119 132.759 157.468C132.995 157.22 133.227 156.982 133.455 156.752C134.3 155.899 135.092 155.153 135.837 154.474C136.191 154.15 136.535 153.842 136.869 153.546C137.238 153.219 137.589 152.911 137.923 152.621C138.577 152.05 139.1 151.6 139.623 151.138C139.765 151.012 139.914 150.881 140.074 150.74C140.682 150.208 141.281 149.7 141.861 149.222C142.62 148.596 143.382 147.991 144.142 147.407C144.188 147.372 144.233 147.337 144.279 147.302C145.007 146.745 145.729 146.211 146.449 145.693C147.123 145.209 147.796 144.739 148.471 144.278C148.57 144.21 148.669 144.143 148.768 144.076C149.532 143.558 150.295 143.053 151.084 142.547C151.52 142.268 151.941 142.001 152.42 141.705C152.552 141.623 152.684 141.542 152.811 141.464C153.012 141.341 153.205 141.223 153.393 141.11C153.393 141.11 153.393 141.11 153.393 141.11C154.607 140.375 156.185 139.488 157.708 138.714C159.051 138.032 160.351 137.406 161.667 136.801C164.461 135.517 167.241 134.369 170.04 133.315C170.304 133.216 170.569 133.117 170.834 133.019C173.356 132.087 175.868 131.239 178.37 130.459C180.219 129.882 182.063 129.342 183.904 128.832C184.802 128.584 185.7 128.342 186.596 128.107C187.388 127.899 188.179 127.697 188.967 127.5C190.88 127.023 192.785 126.576 194.68 126.153C195.377 125.998 196.073 125.846 196.767 125.697C198.707 125.281 200.725 124.873 202.595 124.512C204.799 124.085 207.201 123.648 209.502 123.267C209.871 123.206 210.24 123.145 210.611 123.086C213.306 122.652 216.04 122.261 218.8 121.928C220.085 121.773 221.375 121.63 222.67 121.501C224.154 121.354 225.65 121.223 227.153 121.112C229.968 120.904 232.81 120.764 235.646 120.703C235.839 120.699 236.033 120.695 236.226 120.691C238.891 120.644 241.56 120.66 244.236 120.743C246.618 120.817 249.109 120.947 251.529 121.134C251.984 121.17 252.43 121.207 252.87 121.246C255.037 121.434 257.52 121.704 259.694 121.999C261.934 122.299 264.134 122.642 266.294 123.015C266.379 123.029 266.464 123.044 266.549 123.059C268.627 123.419 270.669 123.807 272.68 124.211C274.775 124.631 276.836 125.07 278.866 125.515C279.439 125.641 280.01 125.767 280.578 125.894C282.024 126.216 283.455 126.54 284.872 126.863C286.854 127.314 288.772 127.755 290.715 128.193C291.741 128.424 292.754 128.651 293.769 128.878C294.611 129.066 295.455 129.253 296.299 129.439C298.069 129.831 299.842 130.22 301.618 130.607C301.717 130.615 301.816 130.623 301.914 130.631C303.228 130.738 304.492 130.838 305.713 130.935C306.377 130.988 307.028 131.04 307.669 131.09C309.682 131.249 311.59 131.399 313.44 131.549C315.414 131.709 317.323 131.869 319.224 132.038C321.141 132.209 323.056 132.39 325.018 132.591C326.617 132.755 328.249 132.929 329.963 133.125C330.556 133.192 331.158 133.262 331.77 133.335C332.667 133.419 333.404 133.451 334.303 133.492C334.475 133.499 334.656 133.509 334.842 133.518C334.887 133.52 334.932 133.522 334.977 133.524C336.122 133.58 337.44 133.662 339.241 133.878C339.496 133.908 339.76 133.942 340.033 133.978C341.467 134.169 343.151 134.442 345.068 134.846C346.596 135.167 348.271 135.572 350.083 136.086C351.63 136.527 353.35 137.063 355.069 137.681C355.344 137.783 355.611 137.884 355.895 137.991C356.192 138.103 356.478 138.244 356.74 138.407C357.744 139.029 358.391 139.977 358.282 140.848C358.271 140.946 358.25 141.043 358.22 141.139C358.182 141.262 358.128 141.382 358.059 141.499C357.654 142.183 356.802 142.619 355.866 142.775C355.615 142.816 355.357 142.838 355.1 142.837C355.333 142.902 355.571 142.967 355.814 143.034C356.418 143.2 357.049 143.374 357.703 143.56C358.359 143.747 359.039 143.945 359.742 144.161C360.446 144.378 361.172 144.613 361.92 144.872C362.119 144.941 362.319 145.012 362.521 145.085C363.109 145.297 363.671 145.587 364.159 145.929C364.592 146.232 364.967 146.575 365.253 146.935C365.863 147.705 366.008 148.471 365.688 149.038C365.368 149.61 364.623 149.951 363.672 150.071C363.367 150.109 363.048 150.123 362.724 150.116C362.034 150.101 361.318 149.99 360.637 149.789C360.603 149.779 360.569 149.769 360.536 149.759C359.853 149.558 359.183 149.378 358.527 149.212C357.869 149.046 357.225 148.895 356.596 148.754C355.966 148.612 355.35 148.481 354.75 148.354C354.249 148.249 353.76 148.147 353.284 148.048C353.188 148.028 353.093 148.008 352.997 147.988C351.356 147.643 349.681 147.308 348.035 146.992C347.471 146.884 346.907 146.777 346.343 146.672C345.254 146.468 344.165 146.27 343.075 146.077C341.849 145.859 340.622 145.647 339.394 145.44C338.971 145.368 338.547 145.297 338.124 145.227C336.477 144.953 334.83 144.686 333.183 144.424C332.944 144.386 332.704 144.348 332.465 144.31C331.05 144.087 329.653 143.871 328.256 143.656C327.357 143.518 326.459 143.38 325.556 143.242C324.821 143.13 324.082 143.017 323.344 142.905C322.693 142.805 322.044 142.706 321.399 142.609C320.886 142.531 320.385 142.457 319.885 142.381C319.476 142.32 319.065 142.257 318.642 142.193C318.297 142.141 317.953 142.089 317.608 142.037C315.701 141.751 313.789 141.465 311.878 141.179C309.968 140.893 308.058 140.607 306.156 140.322C305.858 140.277 305.561 140.232 305.263 140.187C303.655 139.945 302.048 139.702 300.443 139.457C298.54 139.167 296.639 138.875 294.74 138.579C293.798 138.432 292.857 138.285 291.917 138.136C290.962 137.986 290.006 137.834 289.047 137.68C287.067 137.363 285.096 137.039 283.1 136.712C281.591 136.465 280.075 136.218 278.552 135.974C278.065 135.896 277.577 135.819 277.089 135.742C275.073 135.424 273.046 135.116 271.004 134.828C268.969 134.541 266.92 134.273 264.855 134.036C264.851 134.035 264.846 134.035 264.842 134.034C262.777 133.797 260.695 133.59 258.598 133.425C256.525 133.262 254.345 133.134 252.276 133.069C251.789 133.054 251.298 133.04 250.805 133.03C248.614 132.981 246.428 132.984 244.272 133.034C242.827 133.067 241.385 133.122 239.945 133.195C238.722 133.345 237.513 133.503 236.321 133.669C236.138 133.695 235.955 133.721 235.773 133.747C233.323 134.094 230.891 134.536 228.492 135.035C226.989 135.348 225.499 135.684 224.024 136.034C225.586 135.797 227.082 135.579 228.525 135.378C231.306 134.991 233.888 134.665 236.359 134.393C238.251 134.185 240.079 134.008 241.882 133.863C242.603 133.806 243.321 133.753 244.037 133.706C244.116 133.701 244.195 133.696 244.274 133.691C246.889 133.522 249.584 133.431 252.258 133.443C254.252 133.451 256.411 133.533 258.573 133.688C260.563 133.831 262.63 134.038 264.804 134.321C265.815 134.452 266.849 134.6 267.91 134.764C268.939 134.924 269.948 135.088 270.937 135.253C273.04 135.604 275.055 135.964 276.988 136.319C279.073 136.702 281.064 137.08 282.969 137.442C285.045 137.837 287.006 138.212 288.891 138.565C290.878 138.937 292.76 139.285 294.563 139.616C296.564 139.983 298.456 140.326 300.244 140.651C302.269 141.018 304.162 141.361 305.933 141.683C307.99 142.057 309.882 142.404 311.627 142.728C313.73 143.119 315.618 143.477 317.321 143.81C317.5 143.845 317.676 143.88 317.85 143.914C319.786 144.296 321.492 144.647 323.008 144.979C324.88 145.388 326.466 145.766 327.854 146.132C329.757 146.635 331.284 147.118 332.655 147.63C333.341 147.886 333.988 148.15 334.624 148.428C335.434 148.782 336.373 149.143 337.398 149.505C338.86 150.022 340.498 150.541 342.194 151.044C343.784 151.516 345.424 151.975 347.018 152.404C348.723 152.862 350.381 153.287 351.859 153.649C352.472 153.798 353.057 153.934 353.609 154.058C354.035 154.153 354.44 154.242 354.819 154.322C355.011 154.363 355.197 154.416 355.375 154.478C356.044 154.713 356.609 155.093 357.002 155.548C357.523 156.15 357.736 156.877 357.549 157.564C357.364 158.244 356.84 158.761 356.156 159.064C355.63 159.295 355.005 159.401 354.336 159.348C354.148 159.333 353.956 159.305 353.761 159.264C353.407 159.188 353.025 159.105 352.617 159.014C352.077 158.894 351.486 158.759 350.862 158.609C349.404 158.256 347.789 157.847 346.08 157.394C344.527 156.983 342.909 156.538 341.302 156.072C339.673 155.6 338.057 155.106 336.533 154.601C334.792 154.024 333.173 153.431 331.798 152.838C331.76 152.822 331.723 152.805 331.685 152.789C330.429 152.242 329.07 151.736 327.038 151.167C325.745 150.806 324.18 150.419 322.196 149.979C320.656 149.637 318.864 149.264 316.75 148.848C316.672 148.832 316.594 148.817 316.515 148.801C314.82 148.468 312.932 148.109 310.818 147.716C309.077 147.392 307.183 147.045 305.117 146.67C303.345 146.348 301.448 146.004 299.414 145.635C297.622 145.31 295.725 144.966 293.713 144.597C291.907 144.266 290.011 143.916 288.016 143.542C286.125 143.189 284.148 142.811 282.074 142.416C280.172 142.054 278.191 141.678 276.123 141.298C274.207 140.946 272.218 140.591 270.15 140.245C269.157 140.079 268.145 139.915 267.115 139.755C266.098 139.597 265.108 139.456 264.144 139.331C262.021 139.055 260.016 138.856 258.09 138.722C255.988 138.575 253.967 138.504 252.004 138.5C249.529 138.496 247.111 138.582 244.658 138.738C244.535 138.746 244.412 138.754 244.288 138.762C243.723 138.8 243.156 138.842 242.584 138.886C242.58 138.886 242.576 138.886 242.571 138.886C240.65 139.037 238.684 139.227 236.622 139.456C234.237 139.721 231.724 140.038 229.009 140.417C226.654 140.746 224.146 141.121 221.436 141.552C220.95 141.63 220.457 141.709 219.959 141.79C217.988 142.111 215.958 142.469 213.894 142.862C211.428 143.33 208.921 143.844 206.391 144.394C203.913 144.932 201.435 145.497 198.983 146.097C196.492 146.706 194.035 147.351 191.656 148.032C189.154 148.747 186.737 149.502 184.453 150.285C181.932 151.149 179.573 152.047 177.432 152.945C174.833 154.033 172.555 155.119 170.675 156.102C168.442 157.268 166.785 158.273 165.76 158.943C165.278 159.258 164.804 159.578 164.329 159.909C163.742 160.317 163.189 160.718 162.609 161.151C162.583 161.17 162.557 161.19 162.531 161.209C162.01 161.599 161.482 162.005 160.938 162.435C160.415 162.849 159.877 163.287 159.317 163.756C158.812 164.179 158.289 164.629 157.745 165.112C157.256 165.547 156.75 166.009 156.225 166.505C155.744 166.96 155.283 167.412 154.76 167.938C154.221 168.478 153.642 169.041 153.065 169.607C152.538 170.125 152 170.655 151.46 171.206C150.966 171.71 150.47 172.231 149.987 172.774C149.54 173.274 149.104 173.793 148.694 174.331C148.314 174.83 147.957 175.345 147.642 175.874C147.325 176.412 147.142 176.77 146.882 177.383C146.736 177.733 146.599 178.08 146.474 178.415C146.209 179.126 145.93 179.947 145.679 180.796C145.349 181.908 145.051 183.102 144.801 184.367C144.581 185.475 144.398 186.637 144.26 187.841C144.26 187.908 144.261 187.976 144.261 188.043C144.272 189.306 144.337 190.557 144.449 191.782C144.565 193.038 144.73 194.266 144.936 195.455C145.155 196.727 145.399 197.796 145.702 199.015C145.946 199.993 146.185 200.825 146.447 201.717C146.567 202.123 146.69 202.522 146.813 202.915C146.968 203.407 147.134 203.89 147.308 204.363C147.634 205.245 147.992 206.093 148.378 206.907C148.775 207.747 149.202 208.55 149.651 209.316C150.113 210.103 150.599 210.85 151.105 211.558C151.345 211.894 151.592 212.226 151.837 212.539C152.108 212.876 152.382 213.203 152.706 213.6C153.048 214.008 153.295 214.215 153.599 214.505C153.796 214.693 153.998 214.881 154.206 215.068C154.744 215.554 155.318 216.036 155.918 216.518C156.523 217.005 157.155 217.492 157.805 217.985C158.095 218.205 158.388 218.425 158.683 218.648C159.055 218.928 159.442 219.211 159.845 219.498C160.541 219.995 161.282 220.504 162.069 221.039C162.651 221.435 163.258 221.844 163.894 222.277C164.08 222.403 164.268 222.531 164.456 222.66C166.116 223.771 167.695 224.728 169.5 225.82C171.111 226.787 172.796 227.763 174.556 228.752C176.162 229.653 177.83 230.563 179.56 231.475C181.148 232.312 182.788 233.15 184.48 233.975C185.888 234.661 187.332 235.338 188.808 235.991C188.97 236.063 189.132 236.134 189.293 236.203C191.017 236.939 192.255 237.414 194.01 237.981C195.855 238.56 197.173 238.902 198.936 239.296C200.686 239.681 202.456 239.993 204.233 240.25C206.106 240.52 207.986 240.73 209.86 240.897C211.844 241.075 213.82 241.205 215.778 241.308C217.115 241.379 218.444 241.436 219.763 241.487C218.359 241.411 217.034 241.325 215.78 241.227C213.613 241.059 211.658 240.855 209.878 240.62C207.798 240.346 205.957 240.03 204.303 239.687C203.829 239.589 203.37 239.489 202.925 239.387C202.153 239.21 201.427 239.028 200.739 238.844C200.176 238.693 199.638 238.54 199.123 238.386C197.211 237.817 196.051 237.371 194.392 236.756C192.615 236.071 191.517 235.574 189.87 234.87C189.786 234.833 189.701 234.796 189.616 234.759C188.065 234.084 186.596 233.361 185.211 232.626C183.538 231.736 181.989 230.828 180.55 229.936C178.869 228.892 177.339 227.869 175.932 226.891C174.254 225.723 172.752 224.619 171.371 223.58C169.675 222.297 168.335 221.272 166.852 220.097C166.06 219.459 165.317 218.879 164.619 218.34C163.89 217.778 163.206 217.258 162.554 216.762C161.895 216.261 161.269 215.785 160.669 215.322C160.629 215.291 160.589 215.26 160.549 215.229C160.016 214.816 159.489 214.406 158.979 213.998C158.466 213.587 157.971 213.179 157.505 212.775C157.045 212.346 156.778 212.197 156.338 211.72C156.315 211.693 156.291 211.666 156.267 211.638C155.719 210.959 155.334 210.546 154.828 209.841C154.372 209.218 153.921 208.55 153.483 207.84C153.061 207.155 152.651 206.431 152.259 205.67C151.879 204.933 151.517 204.162 151.176 203.362C150.845 202.583 150.534 201.777 150.25 200.946C149.966 200.1 149.733 199.382 149.495 198.449C149.375 197.978 149.274 197.554 149.185 197.165C149.053 196.59 148.921 195.894 148.808 195.232C148.627 194.156 148.48 193.041 148.377 191.894C148.278 190.787 148.219 189.652 148.208 188.499C148.197 187.381 148.232 186.245 148.32 185.105C148.406 183.993 148.542 182.877 148.737 181.768C148.929 180.721 149.104 179.849 149.407 178.804C149.408 178.802 149.409 178.799 149.41 178.797C149.434 178.717 149.458 178.637 149.483 178.556C149.483 178.556 149.483 178.556 149.483 178.556C149.645 178.014 149.648 177.847 149.875 177.326C150.051 176.908 150.28 176.462 150.557 175.997C150.574 175.968 150.591 175.94 150.608 175.912C150.906 175.42 151.255 174.908 151.647 174.383C152.036 173.862 152.467 173.327 152.931 172.781C153.393 172.238 153.886 171.683 154.405 171.111C154.917 170.546 155.476 169.946 156.026 169.343C156.491 168.825 156.898 168.376 157.373 167.886C157.834 167.409 158.307 166.939 158.793 166.477C159.278 166.015 159.775 165.561 160.284 165.114C160.792 164.668 161.312 164.23 161.842 163.799C162.372 163.368 162.912 162.945 163.462 162.529C164.02 162.109 164.554 161.715 165.14 161.304C167.174 159.877 169.151 158.635 171.3 157.442C171.387 157.394 171.473 157.346 171.56 157.299C172.479 156.794 173.585 156.192 174.879 155.531C175.78 155.07 176.773 154.581 177.858 154.075C179.845 153.149 182.141 152.169 184.736 151.205C186.908 150.397 189.29 149.601 191.863 148.848C194.152 148.177 196.591 147.541 199.167 146.951C201.535 146.408 204.004 145.907 206.592 145.445C209.033 145.008 211.536 144.617 214.13 144.286C214.41 144.25 214.691 144.215 214.973 144.181C217.144 143.918 219.369 143.727 221.709 143.59C223.7 143.473 225.774 143.396 227.967 143.354C228.403 143.346 228.844 143.339 229.29 143.334C230.33 143.322 231.398 143.318 232.497 143.321C233.879 143.325 235.319 143.343 236.827 143.377C239.147 143.43 241.629 143.522 244.303 143.675C246.64 143.808 249.04 143.986 251.716 144.238C253.593 144.417 255.456 144.631 257.498 144.895C257.693 144.921 257.889 144.946 258.086 144.973C259.755 145.195 261.496 145.448 263.3 145.731C265.178 146.026 267.125 146.353 269.13 146.709C271.034 147.047 272.991 147.41 274.994 147.79C276.924 148.156 278.896 148.538 280.903 148.927C282.856 149.306 284.857 149.693 286.868 150.072C287.677 150.225 288.49 150.377 289.307 150.529C290.402 150.733 291.497 150.936 292.597 151.138C294.501 151.487 296.412 151.835 298.323 152.18C300.233 152.525 302.143 152.868 304.045 153.209C304.848 153.353 305.649 153.497 306.448 153.64C307.559 153.84 308.663 154.038 309.761 154.236C311.682 154.582 313.584 154.926 315.469 155.269C317.386 155.617 319.284 155.965 321.169 156.313C322.809 156.616 324.44 156.917 326.057 157.218C327.692 157.522 329.315 157.827 330.927 158.133C332.554 158.442 334.169 158.754 335.775 159.07C337.393 159.388 339 159.71 340.598 160.038C342.206 160.369 343.804 160.705 345.393 161.05C346.996 161.398 348.561 161.748 350.157 162.115C350.753 162.252 351.349 162.387 351.916 162.517C352.486 162.648 353.04 162.778 353.576 162.909C353.855 162.978 354.128 163.046 354.397 163.116C354.4 163.117 354.403 163.117 354.406 163.118C354.662 163.184 354.9 163.277 355.114 163.391C355.694 163.698 356.105 164.162 356.309 164.687C356.509 165.201 356.514 165.771 356.327 166.32C356.16 166.81 355.869 167.218 355.506 167.521C355.087 167.869 354.569 168.078 353.98 168.101C353.702 168.112 353.408 168.081 353.102 168.002C352.913 167.953 352.719 167.904 352.521 167.855C352.017 167.73 351.484 167.605 350.924 167.476C350.369 167.348 349.765 167.212 349.16 167.073C347.576 166.708 346.048 166.365 344.46 166.02C342.888 165.679 341.307 165.345 339.715 165.017C338.131 164.691 336.536 164.371 334.929 164.054C333.333 163.74 331.726 163.43 330.106 163.121C328.5 162.816 326.881 162.512 325.248 162.208C323.633 161.907 322.001 161.605 320.359 161.302C318.475 160.953 316.58 160.606 314.663 160.257C312.778 159.914 310.875 159.57 308.952 159.224C307.811 159.018 306.662 158.812 305.507 158.604C304.75 158.468 303.99 158.332 303.228 158.195C301.327 157.854 299.412 157.511 297.492 157.164C295.579 156.819 293.661 156.47 291.747 156.119C290.652 155.918 289.562 155.716 288.469 155.513C287.639 155.358 286.813 155.203 285.994 155.049C283.976 154.668 281.96 154.279 280.009 153.9C278.005 153.512 276.043 153.132 274.129 152.768C272.146 152.392 270.214 152.033 268.342 151.701C266.373 151.351 264.469 151.03 262.639 150.742C260.792 150.451 259.019 150.194 257.331 149.971C257.225 149.957 257.12 149.943 257.015 149.929C255.028 149.672 253.302 149.468 251.462 149.293C248.843 149.046 246.597 148.874 244.318 148.742C241.74 148.591 239.34 148.5 237.09 148.446C235.383 148.405 233.762 148.386 232.214 148.383C231.378 148.382 230.566 148.386 229.776 148.394C229.048 148.401 228.338 148.412 227.645 148.427C225.785 148.467 224.045 148.531 222.385 148.622C219.941 148.755 217.671 148.944 215.444 149.215C215.282 149.234 215.12 149.254 214.959 149.275C212.4 149.597 209.962 149.974 207.539 150.406C204.963 150.865 202.556 151.354 200.232 151.888C197.706 152.469 195.328 153.094 193.108 153.749C190.608 154.488 188.309 155.266 186.222 156.051C183.727 156.989 181.536 157.938 179.649 158.829C178.868 159.198 178.139 159.556 177.461 159.899C176.195 160.54 175.106 161.127 174.187 161.629C173.939 161.764 173.692 161.901 173.446 162.04C171.398 163.191 169.659 164.312 167.697 165.699C167.697 165.699 167.697 165.699 167.697 165.699C167.131 166.101 166.665 166.454 166.142 166.854C165.635 167.245 165.139 167.64 164.655 168.042C164.171 168.443 163.699 168.85 163.24 169.263C162.78 169.676 162.333 170.094 161.898 170.518C161.463 170.942 161.041 171.372 160.632 171.808C160.198 172.265 159.88 172.637 159.44 173.133C158.873 173.751 158.296 174.369 157.801 174.92C157.294 175.481 156.831 176.01 156.415 176.512C155.997 177.016 155.627 177.492 155.313 177.936C155.113 178.219 154.936 178.489 154.784 178.742C154.696 178.888 154.616 179.029 154.545 179.164C154.35 179.533 154.22 179.855 154.156 180.109C154.121 180.264 154.067 180.486 154.16 180.43C154.161 180.431 154.162 180.431 154.162 180.432C154.184 180.445 154.172 180.519 154.14 180.655C153.828 181.734 153.78 182.305 153.605 183.315C153.466 184.245 153.371 185.196 153.317 186.152C153.262 187.13 153.25 188.112 153.276 189.085C153.302 190.085 153.369 191.074 153.471 192.039C153.576 193.037 153.718 194.008 153.889 194.939C153.962 195.34 154.041 195.733 154.125 196.118C154.242 196.627 154.358 197.031 154.533 197.698C154.77 198.589 154.983 199.158 155.255 199.93C155.528 200.676 155.823 201.393 156.135 202.079C156.458 202.79 156.8 203.467 157.155 204.11C157.522 204.774 157.903 205.4 158.292 205.988C158.694 206.593 159.105 207.157 159.519 207.678C159.698 207.903 159.878 208.121 160.057 208.329C160.285 208.577 160.479 208.757 160.795 209.144C161.237 209.612 161.318 209.449 161.743 209.828C162.104 210.095 162.507 210.396 162.951 210.728C163.187 210.905 163.435 211.091 163.693 211.286C163.927 211.462 164.17 211.645 164.421 211.834C164.955 212.235 165.528 212.666 166.147 213.134C166.755 213.595 167.407 214.092 168.114 214.641C168.792 215.167 169.526 215.745 170.319 216.388C171.777 217.548 173.001 218.475 174.614 219.696C175.936 220.689 177.364 221.734 178.937 222.827C180.274 223.755 181.716 224.716 183.283 225.687C184.635 226.524 186.08 227.368 187.619 228.185C188.892 228.861 190.23 229.518 191.62 230.123ZM351.758 141.926C350.849 141.619 349.982 141.345 349.142 141.095C347.333 140.559 345.675 140.146 344.185 139.825C342.942 139.557 341.815 139.353 340.81 139.196C341.925 139.458 343.039 139.724 344.155 139.995C345.362 140.288 346.57 140.588 347.78 140.894C348.225 141.007 348.671 141.12 349.116 141.235C349.997 141.461 350.872 141.69 351.758 141.926ZM139.184 187.795C139.184 187.682 139.184 187.57 139.185 187.457C139.187 186.821 139.203 186.181 139.232 185.538C139.145 186.169 139.071 186.802 139.01 187.436C138.875 188.829 138.8 190.226 138.786 191.621C138.785 191.663 138.785 191.706 138.784 191.748C138.774 193.102 138.818 194.454 138.919 195.803C139.007 196.986 139.14 198.172 139.319 199.345C139.163 198.156 139.055 196.968 138.99 195.798C138.912 194.384 138.895 192.99 138.933 191.625C138.969 190.318 139.055 189.039 139.184 187.795ZM186.781 240.62C185.152 239.9 183.583 239.162 182.068 238.421C180.243 237.529 178.496 236.633 176.814 235.746C174.974 234.775 173.213 233.813 171.517 232.862C169.67 231.825 167.902 230.801 166.199 229.774C164.665 228.848 163.204 227.939 161.779 227.004C161.494 226.816 161.21 226.627 160.927 226.435C160.104 225.873 159.301 225.328 158.524 224.79C157.733 224.243 156.966 223.701 156.225 223.153C156.126 223.08 156.028 223.007 155.93 222.934C155.289 222.454 154.655 221.979 154.028 221.497C153.92 221.414 153.813 221.33 153.705 221.247C153.794 221.347 153.884 221.447 153.974 221.547C154.584 222.224 155.212 222.885 155.848 223.534C156.507 224.206 157.174 224.865 157.84 225.514C158.535 226.192 159.232 226.86 159.915 227.518C161.499 229.046 162.965 230.377 164.372 231.597C164.431 231.648 164.49 231.699 164.549 231.75C166.26 233.228 167.873 234.545 169.394 235.733C171.194 237.139 172.865 238.365 174.427 239.457C176.31 240.773 178.034 241.894 179.649 242.883C181.579 244.064 183.354 245.056 185.08 245.933C185.237 246.012 185.393 246.091 185.549 246.168C187.172 246.972 188.69 247.653 190.356 248.287C190.496 248.314 190.637 248.342 190.778 248.369C192.127 248.627 193.436 248.829 194.805 249.018C195.484 249.111 196.181 249.198 196.888 249.277C198.387 249.446 199.931 249.579 201.427 249.676C201.966 249.711 202.508 249.742 203.051 249.77C204.736 249.855 206.437 249.906 208.122 249.934C208.505 249.94 208.889 249.945 209.273 249.949C211.133 249.967 212.989 249.959 214.848 249.935C215.084 249.932 215.321 249.929 215.557 249.925C217.43 249.897 219.302 249.854 221.129 249.801C221.247 249.798 221.365 249.794 221.483 249.791C221.628 249.787 221.772 249.782 221.916 249.778C223.942 249.716 225.926 249.645 227.769 249.554C227.97 249.544 228.167 249.534 228.361 249.524C230.106 249.431 231.606 249.325 232.944 249.169C233.719 249.079 234.502 248.992 235.288 248.909C236.391 248.792 237.5 248.683 238.603 248.581C239.816 248.469 241.027 248.367 242.235 248.273C242.913 248.221 243.589 248.171 244.265 248.124C245.918 248.009 247.557 247.91 249.2 247.825C249.432 247.812 249.665 247.801 249.898 247.789C250.505 247.759 251.139 247.73 251.741 247.704C252.019 247.692 252.296 247.68 252.573 247.669C251.465 247.618 250.344 247.569 249.211 247.522C246.942 247.427 244.624 247.341 242.259 247.261C241.903 247.249 241.546 247.237 241.188 247.226C239.276 247.163 237.32 247.097 235.313 247.03C233.073 246.955 230.746 246.88 228.37 246.81C226.571 246.757 224.725 246.707 222.864 246.649C222.554 246.639 222.243 246.629 221.932 246.619C219.874 246.551 217.78 246.471 215.649 246.36C213.642 246.255 211.602 246.122 209.533 245.939C207.582 245.766 205.606 245.548 203.611 245.263C201.726 244.993 199.826 244.661 197.921 244.245C196.055 243.833 194.454 243.418 192.509 242.806C190.661 242.213 189.13 241.632 187.285 240.84C187.118 240.768 186.95 240.695 186.781 240.62ZM308.234 253.216C308.167 253.204 308.099 253.191 308.029 253.178C306.443 252.882 304.174 252.49 301.281 252.048C300.567 251.939 299.813 251.828 299.024 251.714C299.042 251.718 299.061 251.722 299.08 251.726C301.01 252.169 302.791 252.589 304.711 253.046C305.784 253.301 306.847 253.559 307.904 253.82C310.216 254.391 312.497 254.978 314.788 255.591C316.63 256.084 318.465 256.591 320.295 257.114C321.796 257.544 323.293 257.984 324.788 258.436C327.391 259.224 329.99 260.048 332.565 260.908C333.28 261.146 333.993 261.387 334.704 261.631C337.977 262.753 341.318 263.975 344.499 265.21C344.559 265.233 344.618 265.256 344.678 265.279C345.69 265.671 346.849 266.167 347.862 266.637C346.895 266.117 345.759 265.568 344.742 265.117C343.39 264.511 341.974 263.904 340.482 263.289C338.436 262.446 336.329 261.617 334.091 260.771C333.689 260.619 333.248 260.451 332.769 260.269C332.226 260.062 331.632 259.837 330.989 259.598C328.353 258.615 324.869 257.375 320.543 256.132C316.996 255.113 312.884 254.093 308.234 253.216ZM372.307 285.495C372.64 286.039 372.956 286.604 373.247 287.182C373.468 287.619 373.676 288.066 373.869 288.517C374.197 289.283 374.502 290.149 374.688 290.749C375.224 292.427 375.716 294.424 376.051 296.364C376.286 297.716 376.455 299.056 376.567 300.388C376.601 300.781 376.629 301.173 376.652 301.563C376.695 302.286 376.722 303.01 376.733 303.723C376.751 304.922 376.727 306.108 376.664 307.278C376.86 304.99 376.897 302.682 376.76 300.373C376.597 297.22 375.957 293.517 375.13 290.621C374.853 289.585 374.28 288.021 373.763 286.938C373.218 285.764 372.587 284.651 371.906 283.615C371.495 282.988 371.065 282.389 370.624 281.818C370.547 281.717 370.468 281.618 370.389 281.519C370.816 282.266 371.22 283.037 371.589 283.826C371.846 284.374 372.087 284.931 372.307 285.495Z" fill="#C5E7DD"/>
</svg>
